<?xml version="1.0" encoding="utf-8"?>
<!-- Generator: Adobe Illustrator 15.1.0, SVG Export Plug-In  -->
<!DOCTYPE svg PUBLIC "-//W3C//DTD SVG 1.1//EN" "http://www.w3.org/Graphics/SVG/1.1/DTD/svg11.dtd" [
	<!ENTITY ns_flows "http://ns.adobe.com/Flows/1.0/">
]>
<svg version="1.1"
	 xmlns="http://www.w3.org/2000/svg" xmlns:xlink="http://www.w3.org/1999/xlink" xmlns:a="http://ns.adobe.com/AdobeSVGViewerExtensions/3.0/"
	 x="0px" y="0px" width="92px" height="51px" viewBox="-0.303 -0.611 92 51"
	 overflow="visible" enable-background="new -0.303 -0.611 92 51" xml:space="preserve">
<defs>
</defs>
<path fill="#7A1600" d="M43.786,19.055c0.392-0.29,0.666-0.629,0.824-1.016c0.219-0.539,0.18-1.055-0.118-1.55
	c-0.297-0.497-0.806-0.891-1.525-1.184c-0.931-0.379-1.781-0.458-2.55-0.236c-0.768,0.222-1.301,0.701-1.6,1.435
	c-0.146,0.357-0.199,0.702-0.159,1.031s0.159,0.535,0.36,0.617c0.06,0.024,0.146,0.034,0.255,0.026
	c-0.007,0.046-0.016,0.078-0.024,0.099c-0.043,0.104-0.154,0.161-0.337,0.173l-0.229,0.007l-0.786,0.036
	c0.032-0.653,0.156-1.246,0.373-1.778c0.426-1.046,1.155-1.77,2.189-2.172c1.033-0.402,2.102-0.379,3.205,0.07
	c0.774,0.315,1.312,0.753,1.617,1.317c0.306,0.564,0.33,1.164,0.072,1.797c-0.319,0.783-0.878,1.372-1.679,1.763
	c-0.472,0.231-0.807,0.307-1.006,0.227c-0.063-0.026-0.096-0.08-0.101-0.162C42.988,19.512,43.394,19.345,43.786,19.055z"/>
<path fill="#7A1600" d="M42.494,19.737c0.061-0.055,0.123-0.07,0.186-0.044c0.198,0.081,0.385,0.368,0.562,0.864
	c0.299,0.84,0.289,1.65-0.03,2.435c-0.258,0.634-0.693,1.046-1.305,1.235c-0.612,0.19-1.305,0.129-2.079-0.187
	c-1.104-0.449-1.885-1.179-2.343-2.188c-0.459-1.011-0.476-2.038-0.05-3.084c0.217-0.531,0.542-1.042,0.976-1.532l0.537,0.574
	l0.158,0.166c0.124,0.135,0.164,0.255,0.121,0.359c-0.008,0.02-0.025,0.05-0.051,0.088c-0.074-0.083-0.142-0.136-0.201-0.16
	c-0.201-0.082-0.43-0.019-0.689,0.189c-0.26,0.208-0.461,0.492-0.607,0.849c-0.298,0.734-0.251,1.45,0.144,2.146
	c0.395,0.694,1.058,1.232,1.989,1.61c0.72,0.293,1.359,0.366,1.918,0.219c0.559-0.146,0.947-0.489,1.167-1.027
	c0.158-0.387,0.198-0.822,0.121-1.303C42.938,20.464,42.765,20.061,42.494,19.737z"/>
<path fill="#98B760" d="M38.464,27.505c0.394,2.913-5.668,11.021-8.738,11.021c-1.3,0-2.244-1.18-2.244-2.4
	c0-2.795,2.558-5.944,2.558-7.36c0-0.945-3.227-0.669-3.227-2.047c0-0.709,1.259-4.881,1.929-4.881c0.394,0,1.181,0.316,1.181,0.788
	c0,1.062-0.354,2.007-0.591,3.03c1.024,0.354,3.424,0.788,3.424,2.244c0,2.047-3.267,5.197-3.267,7.754
	c0,0.473,0.315,0.945,0.827,0.945c2.794,0,6.021-6.141,6.888-8.502c0.118-0.354,0.59-2.047,1.062-2.047
	c0.197,0,0.315,0.434,0.315,0.591C38.582,26.954,38.543,27.229,38.464,27.505z"/>
<path fill="#98B760" d="M42.874,36.52c-0.689,1.383-1.416,2.341-2.947,2.791c-1.452,0.425-2.772-0.194-3.21-1.687
	c-0.756-2.581,0.439-7.615,0.807-10.395c0.098-0.861-0.02-1.264,0.86-1.697c0.201-0.059,0.403-0.118,0.604-0.177
	c0.323-0.095,0.894-0.087,1.024,0.356c0.083,0.282,0.033,0.56-0.11,0.82l0.128,0.137c0.466,1.44-1.993,6.496-1.178,9.277
	c0.166,0.564,0.756,0.786,1.28,0.632c3.105-0.91,4.041-11.606,5.089-11.912c0.242-0.072,0.526,0.152,0.597,0.394
	C46.351,26.875,43.794,34.585,42.874,36.52z"/>
<path fill="#98B760" d="M59.88,26.008c-0.708,2.48-4.724,10.234-7.597,10.234c-1.692,0-2.086-1.614-2.086-2.991
	c0-1.929,0.708-3.779,0.984-5.668c-0.984,1.692-4.448,8.62-6.376,8.62c-1.102,0-1.692-0.984-1.692-2.008
	c0-2.164,0.866-4.25,1.377-6.336c0.276-1.062,0.118-3.306,1.377-3.779c0.315-0.118,0.669-0.157,0.984-0.236
	c0.394,0.08,0.749,0.197,0.906,0.629c-0.59,2.283-2.401,6.102-2.401,8.306c0,0.039,0.157,0.433,0.197,0.512
	c0.905-0.039,5.273-8.621,5.983-9.958c0.433-0.827,0.512-1.338,1.574-1.338c0.787,0,1.89,0.314,1.89,1.299
	c0,1.89-2.913,5.472-2.913,9.092c0,0.551,0.235,1.457,0.945,1.457c1.928,0,4.959-6.259,5.824-7.873
	c0.08-0.158,0.827-1.535,0.985-1.535c0.196,0,0.315,0.473,0.315,0.63C60.156,25.378,60.077,25.733,59.88,26.008z"/>
<path fill="#98B760" d="M69.036,32.174l0.562,1.661c-0.908,0.379-1.604,1.067-2.449,1.592c0.882,5.263,1.781,11.075-4.208,13.586
	c-2.468,1.035-7.79,1.984-9.112-1.174c-2.268-5.409,7.412-11.131,11.076-13.691c-0.271-0.953-0.527-1.87-0.82-2.771
	c-0.539,1.463-1.007,3.196-2.604,3.866c-1.416,0.592-2.856-0.297-3.403-1.605c-1.051-2.504-0.607-13.359,2.152-14.516
	c1.561-0.654,2.833,0.648,4.258,0.69c0.439,0.029,0.817-0.086,1.19-0.115c0.3,0.002,0.65,0.026,0.788,0.353
	c0.396,0.943-0.29,1.957-0.509,2.859c-0.88,3.398-0.608,6.999,0.563,10.305L69.036,32.174z M55.438,46.694
	c0.883,2.107,4.611,1.227,6.208,0.557c5.009-2.1,5.003-6.494,3.971-11.097C62.889,37.383,53.948,43.137,55.438,46.694z
	 M61.575,21.417c-1.562,0.653-2.373,9.615-1.718,11.177c0.137,0.326,0.644,0.924,1.08,0.743c1.308-0.549,3.406-9.793,2.813-11.21
	C63.536,21.619,62.083,21.204,61.575,21.417z"/>
<path fill="#98B760" d="M74.359,35.091c-1.73,0.38-2.992-0.229-4.014-1.576c-0.432,0.416-2.143,0.653-2.757,0.789
	c-0.078,0.017-0.202,0.003-0.325-0.009c-0.355-1.252,1.296-1.758,2.2-2.601c-1.389-6.506,2.731-16.921,4.341-22.433
	c0.189-0.606,0.494-0.875,1.108-1.01c1.346-0.295,3.079-0.112,3.442,1.541c0.801,3.652-1.863,12.62-3.315,16.283
	c-0.722,1.852-1.84,3.548-2.92,5.236c0.433,0.872,1.148,1.562,2.187,1.333c4.268-0.938,5.238-7.454,6.191-7.704l0.345,0.287
	C81.7,28.586,78.088,34.272,74.359,35.091z M76.229,10.582c-2.267,0.498-5.392,15.449-4.843,17.949
	c0.017,0.077,0.081,0.184,0.098,0.26c1.983-0.516,5.687-15.394,5.18-17.701C76.631,10.937,76.422,10.539,76.229,10.582z"/>
<path fill="#98B760" d="M82.303,34.389c-2.322,0-3.976-0.984-3.976-3.503c0-2.755,2.638-11.414,6.062-11.414
	c0.867,0,2.48,0.314,2.48,1.456c0,3.149-3.779,7.793-6.022,9.88c0.119,0.709,0.708,1.377,1.457,1.377
	c4.093,0,7.596-10.076,8.699-10.037l0.275,0.512C91.08,25.533,85.451,34.389,82.303,34.389z M84.743,21.557
	c-1.456,0-3.936,5.313-3.936,6.692l0.04,0.078c1.103,0,4.251-5.078,4.251-6.219C85.098,21.872,85.059,21.557,84.743,21.557z"/>
<path fill="#98B760" d="M28.369,24.978l0.276,1.606c-2.241,3.551-4.348,6.522-6.32,8.918c-1.974,2.393-3.971,4.318-5.994,5.774
	c-2.024,1.456-4.065,2.36-6.125,2.712c-1.779,0.305-3.368,0.213-4.766-0.275c-1.398-0.489-2.539-1.357-3.422-2.604
	c-0.883-1.249-1.485-2.804-1.804-4.663c-0.25-1.464-0.282-3.058-0.093-4.776c0.189-1.72,0.584-3.491,1.188-5.315
	c0.603-1.825,1.4-3.735,2.389-5.736c0.988-2,2.189-4.131,3.602-6.389c1.464-2.334,2.954-4.39,4.464-6.167
	c1.51-1.775,2.911-3.208,4.201-4.292c1.291-1.086,2.514-1.938,3.671-2.562c1.156-0.62,2.139-1.002,2.947-1.142
	c0.824-0.141,1.558-0.062,2.202,0.234c0.645,0.297,1.189,0.796,1.632,1.5c0.443,0.706,0.749,1.551,0.919,2.54
	c0.319,1.863,0.04,4.043-0.838,6.543c-0.879,2.5-2.082,4.974-3.613,7.425c-1.531,2.451-3.042,4.497-4.532,6.132
	c-1.493,1.638-2.617,2.522-3.375,2.652c-0.511,0.087-1.019-0.034-1.525-0.362c-0.506-0.33-0.802-0.753-0.89-1.266
	c-0.162-0.941,0.14-2.167,0.907-3.678c0.766-1.508,1.642-2.921,2.628-4.239c0.985-1.317,1.593-1.996,1.824-2.035
	c0.115-0.021,0.181,0.019,0.198,0.118c0.026,0.149-0.017,0.42-0.127,0.811c-0.111,0.393-0.159,0.63-0.146,0.712
	c0.022,0.132,0.083,0.189,0.182,0.172c0.28-0.048,0.959-0.932,2.036-2.655c1.077-1.724,2.018-3.579,2.82-5.569
	c0.803-1.987,1.106-3.557,0.909-4.707c-0.081-0.475-0.248-0.824-0.497-1.043c-0.249-0.219-0.58-0.293-0.99-0.225
	c-1.154,0.198-2.742,1.433-4.768,3.705c-2.025,2.271-4.02,5.063-5.985,8.376c-1.965,3.312-3.508,6.65-4.626,10.012
	c-1.119,3.362-1.478,6.212-1.076,8.55c0.231,1.351,0.626,2.446,1.185,3.281s1.271,1.436,2.139,1.796
	c0.866,0.359,1.851,0.443,2.956,0.254c2.386-0.409,4.935-1.804,7.646-4.184C22.487,32.541,25.352,29.226,28.369,24.978z"/>
</svg>
