<?xml version="1.0" encoding="utf-8"?>
<!-- Generator: Adobe Illustrator 15.1.0, SVG Export Plug-In  -->
<!DOCTYPE svg PUBLIC "-//W3C//DTD SVG 1.1//EN" "http://www.w3.org/Graphics/SVG/1.1/DTD/svg11.dtd" [
	<!ENTITY ns_flows "http://ns.adobe.com/Flows/1.0/">
]>
<svg version="1.1"
	 xmlns="http://www.w3.org/2000/svg" xmlns:xlink="http://www.w3.org/1999/xlink" xmlns:a="http://ns.adobe.com/AdobeSVGViewerExtensions/3.0/"
	 x="0px" y="0px" width="103px" height="33px" viewBox="-0.055 -0.104 103 33"
	 overflow="visible" enable-background="new -0.055 -0.104 103 33" xml:space="preserve">
<defs>
</defs>
<path fill="#FFFFFF" d="M17.64,19.726c-0.234,0.023-0.491,0.023-0.749,0.023h-3.883v4.936h-2.76V8.31h6.644
	c4.188,0,6.597,2.035,6.597,5.591c0,2.62-1.217,4.468-3.392,5.31l3.673,5.474h-3.135L17.64,19.726z M16.892,17.27
	c2.527,0,3.977-1.076,3.977-3.299c0-2.152-1.45-3.181-3.977-3.181h-3.883v6.48H16.892z"/>
<path fill="#FFFFFF" d="M60.105,16.381c0,4.679-3.79,8.305-8.679,8.305s-8.679-3.626-8.679-8.305c0-4.702,3.79-8.258,8.679-8.258
	S60.105,11.702,60.105,16.381z M45.554,16.381c0,3.252,2.69,5.825,5.895,5.825c3.206,0,5.825-2.573,5.825-5.825
	c0-3.251-2.62-5.778-5.825-5.778C48.221,10.603,45.554,13.129,45.554,16.381z"/>
<path fill="#FFFFFF" d="M87.844,8.31c3.392,0,5.498,1.544,5.498,4.094c0,1.848-1.1,3.229-2.877,3.65
	c2.199,0.374,3.509,1.941,3.509,4.141c0,2.807-2.269,4.491-5.965,4.491h-7.275V8.31H87.844z M83.493,15.094h4.21
	c1.754,0,2.807-0.819,2.807-2.199c0-1.38-1.053-2.129-2.807-2.129h-4.21V15.094z M83.493,22.229h4.21
	c2.152,0,3.439-0.842,3.439-2.386c0-1.451-1.287-2.316-3.439-2.316h-4.21V22.229z"/>
<circle fill="none" stroke="#FFFFFF" stroke-width="2.9003" stroke-miterlimit="10" cx="16.404" cy="16.404" r="14.954"/>
<circle fill="none" stroke="#FFFFFF" stroke-width="2.9003" stroke-miterlimit="10" cx="51.426" cy="16.404" r="14.954"/>
<circle fill="none" stroke="#FFFFFF" stroke-width="2.9003" stroke-miterlimit="10" cx="86.496" cy="16.404" r="14.954"/>
</svg>
