<?xml version="1.0" encoding="utf-8"?>
<!-- Generator: Adobe Illustrator 15.1.0, SVG Export Plug-In  -->
<!DOCTYPE svg PUBLIC "-//W3C//DTD SVG 1.1//EN" "http://www.w3.org/Graphics/SVG/1.1/DTD/svg11.dtd" [
	<!ENTITY ns_flows "http://ns.adobe.com/Flows/1.0/">
]>
<svg version="1.1"
	 xmlns="http://www.w3.org/2000/svg" xmlns:xlink="http://www.w3.org/1999/xlink" xmlns:a="http://ns.adobe.com/AdobeSVGViewerExtensions/3.0/"
	 x="0px" y="0px" width="193px" height="63px" viewBox="-0.109 291 193 63"
	 overflow="visible" enable-background="new -0.109 291 193 63" xml:space="preserve">
<defs>
</defs>
<path fill="#6EBB1F" d="M100.362,28.19l-0.581,1.453c-0.581,1.453-1.356,3.197-2.034,4.359l2.81,3.197l1.162,1.356h14.628
	l-13.659-20.054l0.29,0.388C102.396,21.797,101.525,24.897,100.362,28.19L100.362,28.19z M93.484,10.85h-0.291
	c-2.616,0.291-6.297,5.231-8.719,11.916c-2.325,6.394-2.712,12.303-1.066,14.144c0.194,0.097,0.484,0.097,0.678,0v-3.003v3.003
	c0.194,0,0.388-0.097,0.678-0.097v-0.097h0.097l0.582-0.291c0.775-0.484,1.647-1.259,2.519-2.324l-0.678-0.098l0.678,0.098
	c0.582-0.679,1.066-1.453,1.647-2.229L86.8,21.7l-0.097-0.194l5.038,5.619l0.194,0.291c0.387-0.775,0.678-1.55,0.969-2.422
	c2.131-5.715,2.616-10.947,1.55-13.369C94.163,11.237,93.872,11.044,93.484,10.85L93.484,10.85z M81.859,22.378
	c3.197-8.137,8.234-14.434,12.497-16.275L90.19,0L63.938,38.557H79.05C78.469,34.487,79.341,28.578,81.859,22.378z"/>
<path fill="#FFFFFF" d="M189.197,44.853c0.484,0,0.969,0.098,1.355,0.291c0.485,0.194,0.872,0.484,1.163,0.775
	c0.29,0.29,0.581,0.678,0.774,1.162c0.194,0.484,0.291,0.872,0.291,1.356s-0.097,0.969-0.291,1.356
	c-0.193,0.388-0.484,0.775-0.774,1.162c-0.388,0.388-0.775,0.581-1.163,0.775c-0.484,0.193-0.871,0.29-1.355,0.29
	c-0.485,0-0.969-0.097-1.356-0.29c-0.484-0.194-0.872-0.484-1.163-0.775c-0.387-0.387-0.581-0.774-0.774-1.162
	c-0.194-0.388-0.291-0.872-0.291-1.356s0.097-0.969,0.291-1.356c0.193-0.484,0.484-0.872,0.774-1.162
	c0.291-0.388,0.679-0.581,1.163-0.775C188.229,44.95,188.712,44.853,189.197,44.853z M192.394,48.438
	c0-0.484-0.097-0.872-0.193-1.26c-0.194-0.387-0.388-0.774-0.679-1.065c-0.29-0.29-0.678-0.581-1.065-0.678
	c-0.388-0.194-0.774-0.291-1.259-0.291c-0.485,0-0.872,0.097-1.26,0.194c-0.388,0.193-0.775,0.388-1.065,0.678
	c-0.291,0.291-0.582,0.678-0.679,1.065c-0.193,0.388-0.29,0.775-0.29,1.26c0,0.388,0.097,0.872,0.29,1.259
	c0.194,0.388,0.388,0.775,0.679,1.065c0.29,0.291,0.678,0.582,1.065,0.679c0.388,0.193,0.774,0.291,1.26,0.291
	c0.387,0,0.871-0.098,1.259-0.291s0.775-0.388,1.065-0.679c0.291-0.29,0.582-0.678,0.679-1.065
	C192.394,49.31,192.394,48.922,192.394,48.438z M189.294,46.307c0.581,0,1.065,0.097,1.259,0.29
	c0.291,0.194,0.388,0.484,0.388,0.872c0,0.291-0.097,0.581-0.29,0.775c-0.194,0.193-0.388,0.29-0.775,0.387l0.969,1.938h-0.678
	l-0.872-1.841h-1.065v1.841h-0.582v-4.166h1.647V46.307z M189.197,46.693h-0.872v1.551h0.872c0.484,0,0.774-0.097,0.969-0.194
	c0.193-0.097,0.29-0.29,0.29-0.581s-0.097-0.484-0.29-0.581C189.875,46.791,189.584,46.693,189.197,46.693z"/>
<path fill="#6EBB1F" d="M18.794,55.994c0,0.774-0.194,1.453-0.582,2.034c-0.387,0.581-1.065,1.065-1.938,1.356l1.163,0.678
	c0.194,0.097,0.291,0.193,0.388,0.29c0.097,0.098,0.097,0.194,0.097,0.388c0,0.194-0.097,0.485-0.291,0.679
	s-0.388,0.388-0.678,0.484C16.856,62,16.759,62,16.565,62c-0.193,0-0.387,0-0.484-0.097c-0.193-0.097-0.291-0.097-0.387-0.097
	l-3.1-1.744H7.266c-2.131,0-3.778-0.291-5.038-0.872C0.775,58.513,0,57.447,0,55.994v-7.169c0-1.065,0.291-1.938,0.969-2.519
	c0.581-0.581,1.453-0.969,2.519-1.163c0.872-0.193,2.131-0.291,3.778-0.291h4.359c1.647,0,2.81,0.098,3.681,0.194
	c1.163,0.193,2.035,0.581,2.519,1.065c0.678,0.581,0.969,1.55,0.969,2.713V55.994L18.794,55.994z M16.081,56.091v-7.266
	c0-0.678-0.387-1.065-1.162-1.356c-0.678-0.194-1.744-0.291-3.294-0.291H7.266c-1.55,0-2.616,0.097-3.197,0.291
	C3.294,47.76,2.81,48.244,2.81,48.922v7.266c0,0.484,0.194,0.872,0.581,1.162c0.388,0.194,0.872,0.388,1.55,0.484
	c0.484,0.097,1.259,0.097,2.325,0.097h4.359c1.55,0,2.616-0.097,3.294-0.29C15.694,57.253,16.081,56.769,16.081,56.091z
	 M41.172,55.8c0,0.775-0.194,1.356-0.484,1.938c-0.484,0.679-1.163,1.26-2.131,1.647c-1.163,0.484-2.809,0.678-4.747,0.678h-3.875
	c-2.131,0-3.778-0.193-4.941-0.581c-0.969-0.388-1.744-0.872-2.131-1.551c-0.291-0.483-0.485-1.259-0.485-2.131v-9.978
	c0-0.679,0.291-0.97,0.969-0.97h0.872c0.678,0,0.969,0.291,0.969,0.97v9.784c0,0.774,0.388,1.356,1.163,1.743
	c0.678,0.291,1.938,0.484,3.487,0.484h3.778c1.647,0,2.81-0.193,3.487-0.484c0.775-0.29,1.163-0.871,1.163-1.743v-9.784
	c0-0.679,0.291-0.97,0.969-0.97h0.775c0.678,0,0.969,0.291,0.969,0.97V55.8H41.172z M59.384,52.409V52.7
	c0,0.581-0.291,0.969-0.969,0.969H47.178v2.519c0,0.484,0.291,0.872,0.969,1.162c0.678,0.291,1.55,0.388,2.616,0.388h9.784
	c0.678,0,0.969,0.291,0.969,0.969v0.388c0,0.678-0.291,0.969-0.969,0.969h-9.978c-0.388,0-0.775,0-1.163-0.097
	c-0.775-0.097-1.453-0.194-2.034-0.388c-0.582-0.193-1.163-0.388-1.55-0.775c-0.969-0.678-1.453-1.55-1.453-2.615v-7.557
	c0-0.774,0.291-1.453,0.775-1.938c0.388-0.484,0.969-0.871,1.744-1.162s1.646-0.484,2.809-0.679c0.291,0,0.678-0.097,1.163-0.097
	h9.784c0.678,0,0.969,0.291,0.969,0.97v0.29c0,0.678-0.291,0.969-0.969,0.969H49.987c-0.872,0-1.55,0.097-2.034,0.388
	c-0.484,0.29-0.775,0.678-0.775,1.162v2.616h11.237C59.094,51.44,59.384,51.731,59.384,52.409L59.384,52.409z M81.472,56.284
	c0,0.872-0.097,1.453-0.387,1.938c-0.388,0.581-0.969,1.065-1.938,1.356c-1.066,0.291-2.519,0.484-4.359,0.484h-9.591
	c-0.678,0-0.969-0.291-0.969-0.969v-0.291c0-0.678,0.291-0.969,0.969-0.969h9.591c1.453,0,2.519-0.193,3.1-0.484
	c0.484-0.193,0.775-0.581,0.775-0.969v-1.355c0-0.582-0.291-0.969-0.969-1.163c-0.678-0.193-1.647-0.388-2.906-0.388h-3.681
	c-2.422,0-4.166-0.29-5.328-0.969c-1.066-0.581-1.647-1.453-1.647-2.712v-1.163c0-1.259,0.484-2.228,1.356-2.809
	c1.066-0.679,2.81-1.066,5.328-1.066h5.328c0.678,0,0.969,0.291,0.969,0.97v0.29c0,0.678-0.291,0.969-0.969,0.969h-5.328
	c-1.259,0-2.131,0.097-2.809,0.388c-0.775,0.29-1.065,0.678-1.065,1.259v1.066c0,0.484,0.291,0.872,0.968,1.065
	c0.678,0.193,1.744,0.29,3.197,0.29h3.681c2.131,0,3.681,0.388,4.844,1.066c1.163,0.678,1.744,1.55,1.744,2.712v1.453H81.472z"/>
<path fill="#FFFFFF" d="M97.553,46.112c0,0.679-0.29,0.969-0.968,0.969h-6.2v12.013c0,0.678-0.291,0.969-0.969,0.969h-0.872
	c-0.678,0-0.969-0.291-0.969-0.969V47.178h-6.104c-0.678,0-0.969-0.29-0.969-0.969v-0.29c0-0.679,0.291-0.969,0.969-0.969h15.016
	c0.679,0,0.969,0.29,0.969,0.969v0.193H97.553z M117.219,50.569c0,1.259-0.678,2.228-1.938,2.905
	c-1.065,0.582-2.519,0.775-4.165,0.775h-3.876l9.301,3.972c0.29,0.097,0.387,0.194,0.581,0.388c0.097,0.193,0.193,0.388,0.193,0.581
	c0,0.291-0.097,0.484-0.29,0.679c-0.194,0.193-0.484,0.29-0.775,0.29h-0.969c-0.291,0-0.484,0-0.581-0.097l-12.69-5.425v4.456
	c0,0.678-0.291,0.969-0.969,0.969h-0.775c-0.678,0-0.969-0.291-0.969-0.969V45.822c0-0.679,0.291-0.97,0.969-0.97h10.463
	c1.938,0,3.487,0.291,4.553,0.775c1.356,0.679,2.131,1.646,2.131,3.003v1.938H117.219z M114.506,50.569v-1.938
	c0-0.581-0.387-0.969-1.162-1.162c-0.678-0.194-1.55-0.291-2.81-0.291h-8.622v4.844h9.106c0.969,0,1.841-0.097,2.422-0.29
	C114.119,51.344,114.506,51.053,114.506,50.569z M141.244,58.706v0.388c0,0.291,0,0.484-0.098,0.678
	c-0.097,0.194-0.193,0.291-0.387,0.388c-0.388,0.193-0.679,0.291-0.969,0.291c-0.194,0-0.388-0.098-0.582-0.194
	c-0.193-0.097-0.387-0.29-0.581-0.581l-2.519-3.584h-11.722l-2.422,3.584c-0.097,0.194-0.194,0.291-0.194,0.291
	c-0.193,0.193-0.387,0.29-0.678,0.29l-0.581-0.097c-0.291-0.097-0.484-0.29-0.581-0.388c-0.098-0.193-0.194-0.29-0.194-0.484v-0.193
	l8.815-13.466c0.194-0.29,0.485-0.484,0.679-0.678c0.29-0.098,0.581-0.194,0.969-0.194c0.29,0,0.581,0.097,0.678,0.097
	c0.484,0.098,0.775,0.388,0.872,0.679L141.244,58.706L141.244,58.706z M134.56,53.766l-4.263-6.2l-4.263,6.2H134.56L134.56,53.766z
	 M162.266,55.994c0,0.678-0.097,1.259-0.388,1.743v-0.097c-0.388,0.678-1.065,1.356-2.131,1.744
	c-1.065,0.484-2.325,0.678-3.778,0.678h-11.625c-0.678,0-0.969-0.291-0.969-0.969V45.822c0-0.679,0.291-0.97,0.969-0.97h11.818
	c0.872,0,1.551,0,2.035,0.098c0.774,0.097,1.453,0.29,1.938,0.484c0.678,0.291,1.162,0.678,1.55,1.162
	c0.388,0.581,0.678,1.26,0.678,2.132v7.266H162.266z M159.553,55.994v-7.169c0-0.388-0.193-0.678-0.484-0.872
	c-0.29-0.193-0.581-0.388-1.065-0.484c-0.484-0.194-1.065-0.194-1.938-0.194h-9.881v10.656h9.784c0.872,0,1.646-0.097,2.229-0.387
	c0.678-0.291,1.065-0.679,1.259-1.163C159.553,56.188,159.553,56.091,159.553,55.994z M180.575,52.409V52.7
	c0,0.581-0.291,0.969-0.969,0.969h-11.237v2.519c0,0.484,0.29,0.872,0.969,1.162c0.678,0.291,1.55,0.388,2.615,0.388h9.784
	c0.679,0,0.969,0.291,0.969,0.969v0.388c0,0.678-0.29,0.969-0.969,0.969h-9.978c-0.388,0-0.775,0-1.163-0.097
	c-0.774-0.097-1.453-0.194-2.034-0.388s-1.163-0.388-1.55-0.775c-0.969-0.678-1.453-1.55-1.453-2.615v-7.557
	c0-0.774,0.193-1.453,0.774-1.938c0.388-0.484,0.969-0.871,1.744-1.162s1.646-0.484,2.81-0.679c0.29,0,0.678-0.097,1.162-0.097
	h9.688c0.679,0,0.969,0.291,0.969,0.97v0.29c0,0.678-0.29,0.969-0.969,0.969h-10.56c-0.871,0-1.55,0.097-2.034,0.388
	c-0.484,0.29-0.775,0.678-0.775,1.162v2.616h11.238C180.284,51.44,180.575,51.731,180.575,52.409L180.575,52.409z"/>
</svg>
